<svg xmlns="http://www.w3.org/2000/svg" width="36.34" height="36.34" viewBox="0 0 36.34 36.34">
  <g id="noun-circle-1730239" transform="translate(-5 -5)">
    <path id="Path_1" data-name="Path 1" d="M37.313,43.227H24.869a.31.31,0,0,1-.309-.309v-22.8a.31.31,0,0,1,.309-.309H36.584v3.373a.4.4,0,0,0,.4.4h4.074v6.557a.4.4,0,1,0,.808,0V23.184s0,0,0,0,0-.011,0-.017a.318.318,0,0,0-.076-.21.418.418,0,0,0-.039-.058s-.011-.006-.015-.011-.006-.009-.01-.012l-4.479-3.777a40.817,40.817,0,0,0-.122-.067.373.373,0,0,0-.086-.017.4.4,0,0,0-.052-.01H24.869a1.118,1.118,0,0,0-1.117,1.117v22.8a1.118,1.118,0,0,0,1.117,1.117H37.313a.4.4,0,0,0,0-.808Z" transform="translate(-11.18 -8.347)" fill="#f3e1c9"/>
    <path id="Path_2" data-name="Path 2" d="M43.306,44.025a.4.4,0,0,0-.4-.4H31.625a.4.4,0,0,0,0,.808H42.9A.4.4,0,0,0,43.306,44.025Z" transform="translate(-15.633 -23.027)" fill="#f3e1c9"/>
    <path id="Path_3" data-name="Path 3" d="M40.84,52.025a.4.4,0,0,0-.4-.4H31.625a.4.4,0,0,0,0,.808h8.812A.4.4,0,0,0,40.84,52.025Z" transform="translate(-15.633 -27.796)" fill="#f3e1c9"/>
    <path id="Path_4" data-name="Path 4" d="M38.795,59.621h-7.17a.4.4,0,0,0,0,.808h7.17a.4.4,0,0,0,0-.808Z" transform="translate(-15.633 -32.566)" fill="#f3e1c9"/>
    <path id="Path_5" data-name="Path 5" d="M38.726,67.621h-7.1a.4.4,0,1,0,0,.808h7.1a.4.4,0,1,0,0-.808Z" transform="translate(-15.633 -37.336)" fill="#f3e1c9"/>
    <path id="Path_6" data-name="Path 6" d="M58.709,49a6.461,6.461,0,1,0,6.461,6.461A6.468,6.468,0,0,0,58.709,49Zm0,12.113a5.653,5.653,0,1,1,5.653-5.653A5.659,5.659,0,0,1,58.709,61.113Z" transform="translate(-28.17 -26.234)" fill="#f3e1c9"/>
    <path id="Path_7" data-name="Path 7" d="M66.126,59.271h-2.8v-2.8a.4.4,0,0,0-.808,0v2.8h-2.8a.4.4,0,1,0,0,.808h2.8v2.8a.4.4,0,0,0,.808,0v-2.8h2.8a.4.4,0,0,0,0-.808Z" transform="translate(-32.385 -30.448)" fill="#f3e1c9"/>
    <path id="Path_8" data-name="Path 8" d="M52.292,35.621H47.374a.4.4,0,0,0,0,.808h4.919a.4.4,0,1,0,0-.808Z" transform="translate(-25.023 -18.257)" fill="#f3e1c9"/>
    <path id="Path_9" data-name="Path 9" d="M31.034,28.671V29.91a.4.4,0,0,0,.4.4h4.188a.4.4,0,0,0,.4-.4V28.671a1.99,1.99,0,0,0-1.345-1.876,1.861,1.861,0,1,0-2.306,0A1.99,1.99,0,0,0,31.034,28.671Z" transform="translate(-15.522 -11.02)" fill="#f3e1c9"/>
    <path id="Path_10" data-name="Path 10" d="M23.17,5A18.17,18.17,0,1,0,41.34,23.17,18.191,18.191,0,0,0,23.17,5Zm0,35.129A16.959,16.959,0,1,1,40.129,23.17,16.978,16.978,0,0,1,23.17,40.129Z" fill="#f3e1c9"/>
  </g>
</svg>
